<svg xmlns="http://www.w3.org/2000/svg" width="600" height="600" viewBox="0 0 600 600">
  <path d="M270 590 280 544 277 408 258 394 237 401 213 390 191 393 172 376 149 368 136 351 134 329 118 309 115 285 123 266 137 252 136 236 142 221 160 208 177 185 198 176 206 159 218 147 216 129 224 110 247 99 266 76 279 73 294 77 310 70 352 80 393 114 401 135 396 163 400 175 413 188 417 208 440 211 458 227 465 244 464 267 479 286 485 303 481 327 464 345 451 376 438 390 423 395 394 395 375 405 348 399 320 408 323 544 337 590" fill="#567b4f" stroke="#1d1c15" stroke-width="7" stroke-linejoin="round" stroke-linecap="round"/>
  <path class="trunk" d="M270 590 280 544 277 408 320 408 323 544 337 590Z" fill="#76543b" stroke="none"/>
</svg>
