<svg xmlns="http://www.w3.org/2000/svg" width="135.83" height="137.7" viewBox="0 0 45.28 45.9" data-footprint="2 2" data-origin="22.64 23.7" fill="none" stroke="#2a1e16" stroke-width="1.1" stroke-linecap="round" stroke-linejoin="round">
<defs><filter id="hand" x="-4%" y="-4%" width="108%" height="108%"><feTurbulence type="fractalNoise" baseFrequency="0.07" numOctaves="2" seed="4" result="warp"/><feDisplacementMap in="SourceGraphic" in2="warp" scale="1.3" xChannelSelector="R" yChannelSelector="G" result="wobble"/><feTurbulence type="fractalNoise" baseFrequency="1.2" numOctaves="2" seed="9" result="grain"/><feColorMatrix in="grain" type="matrix" values="0 0 0 0 0.16 0 0 0 0 0.11 0 0 0 0 0.07 2.2 0 0 0 -1.18" result="specks"/><feComposite in="specks" in2="wobble" operator="in" result="speckled"/><feMerge><feMergeNode in="wobble"/><feMergeNode in="speckled"/></feMerge></filter></defs>
<g class="part" filter="url(#hand)">
<path data-layer="chimney" fill="#e4d8bd" d="M19.17 18.5L22.64 20.5L22.64 6L19.17 4Z"/>
<path data-layer="chimney" fill="#b9a684" d="M22.64 20.5L25.76 18.7L25.76 4.2L22.64 6Z"/>
<path data-layer="chimney" fill="#ddd0b3" d="M22.29 2.2L19.17 4L22.64 6L25.76 4.2Z"/>
<path data-layer="walls" fill="#c4b393" d="M39.96 33.7L22.64 43.7L22.64 32.7L39.96 22.7Z"/>
<path data-layer="walls" fill="#ece1c9" d="M5.32 33.7L22.64 43.7L22.64 32.7L13.98 17.2L5.32 22.7Z"/>
<path data-layer="windows" fill="#2a1e16" d="M36.49 32.4L34.76 33.4L34.76 30L36.49 29Z"/>
<path data-layer="windows" fill="#2a1e16" d="M13.11 34.9L14.84 35.9L14.84 32.5L13.11 31.5Z"/>
<path data-layer="windows" fill="#2a1e16" d="M13.29 24.99L14.67 25.79L14.67 23.39L13.29 22.59Z"/>
<path data-layer="door" fill="#2a1e16" d="M28.53 40.3L28.53 34.9L28.41 34.28L28.07 33.89L27.56 33.79L26.97 34L26.37 34.48L25.87 35.16L25.53 35.94L25.41 36.7L25.41 42.1Z"/>
<path data-layer="eaves" class="roof-shade" fill="#7b5e45" d="M12.25 18.2L2.2 24.58L2.2 25.58L12.25 19.2Z"/>
<path data-layer="eaves" class="roof-shade" fill="#7b5e45" d="M12.25 18.2L22.29 36.18L22.29 37.18L12.25 19.2Z"/>
<path data-layer="eaves" class="roof-shade" fill="#7b5e45" d="M43.08 24.18L22.29 36.18L22.29 37.18L43.08 25.18Z"/>
<path data-layer="roof" class="roof-shade" fill="#7b5e45" d="M33.03 6.2L12.25 18.2L22.29 36.18L43.08 24.18Z"/>
<path data-layer="roof lines" d="M31.44 12.5L38.14 24.48"/>
<path data-layer="roof lines" d="M26.36 13.71L33.1 25.78"/>
<path data-layer="roof lines" d="M22.29 16.23L29.75 29.58"/>
<path data-layer="roof lines" d="M18.41 20.12L24.5 31.01"/>
</g>
</svg>
