<svg xmlns="http://www.w3.org/2000/svg" width="161.81" height="146.7" viewBox="0 0 53.94 48.9" data-footprint="2 3" data-origin="31.3 21.7" fill="none" stroke="#2a1e16" stroke-width="1.1" stroke-linecap="round" stroke-linejoin="round">
<defs><filter id="hand" x="-4%" y="-4%" width="108%" height="108%"><feTurbulence type="fractalNoise" baseFrequency="0.07" numOctaves="2" seed="4" result="warp"/><feDisplacementMap in="SourceGraphic" in2="warp" scale="1.3" xChannelSelector="R" yChannelSelector="G" result="wobble"/><feTurbulence type="fractalNoise" baseFrequency="1.2" numOctaves="2" seed="9" result="grain"/><feColorMatrix in="grain" type="matrix" values="0 0 0 0 0.16 0 0 0 0 0.11 0 0 0 0 0.07 2.2 0 0 0 -1.18" result="specks"/><feComposite in="specks" in2="wobble" operator="in" result="speckled"/><feMerge><feMergeNode in="wobble"/><feMergeNode in="speckled"/></feMerge></filter></defs>
<g class="part" filter="url(#hand)">
<path data-layer="chimney" fill="#e4d8bd" d="M13.54 23.25L17.01 25.25L17.01 10.25L13.54 8.25Z"/>
<path data-layer="chimney" fill="#b9a684" d="M17.01 25.25L20.13 23.45L20.13 8.45L17.01 10.25Z"/>
<path data-layer="chimney" fill="#ddd0b3" d="M16.66 6.45L13.54 8.25L17.01 10.25L20.13 8.45Z"/>
<path data-layer="walls" fill="#c4b393" d="M48.62 31.7L22.64 46.7L22.64 34.2L48.62 19.2Z"/>
<path data-layer="walls" fill="#ece1c9" d="M5.32 36.7L22.64 46.7L22.64 34.2L13.98 18.2L5.32 24.2Z"/>
<path data-layer="windows" fill="#2a1e16" d="M46.24 29.33L44.51 30.33L44.51 26.92L46.24 25.92Z"/>
<path data-layer="windows" fill="#2a1e16" d="M33.25 36.83L31.51 37.83L31.51 34.42L33.25 33.42Z"/>
<path data-layer="windows" fill="#2a1e16" d="M26.75 40.58L25.02 41.58L25.02 38.17L26.75 37.17Z"/>
<path data-layer="windows" fill="#2a1e16" d="M13.11 37.45L14.84 38.45L14.84 35.05L13.11 34.05Z"/>
<path data-layer="windows" fill="#2a1e16" d="M13.29 26.38L14.67 27.18L14.67 24.78L13.29 23.98Z"/>
<path data-layer="door" fill="#2a1e16" d="M40.44 36.42L40.44 31.03L40.32 30.4L39.98 30.02L39.47 29.92L38.88 30.13L38.28 30.61L37.77 31.29L37.44 32.07L37.32 32.82L37.32 38.22Z"/>
<path data-layer="eaves" class="roof-shade" fill="#7b5e45" d="M12.25 19.2L2.2 26.16L2.2 27.16L12.25 20.2Z"/>
<path data-layer="eaves" class="roof-shade" fill="#7b5e45" d="M12.25 19.2L22.29 37.76L22.29 38.76L12.25 20.2Z"/>
<path data-layer="eaves" class="roof-shade" fill="#7b5e45" d="M51.74 20.76L22.29 37.76L22.29 38.76L51.74 21.76Z"/>
<path data-layer="roof" class="roof-shade" fill="#7b5e45" d="M41.69 2.2L12.25 19.2L22.29 37.76L51.74 20.76Z"/>
<path data-layer="roof lines" d="M39.82 8.8L45.95 20.13"/>
<path data-layer="roof lines" d="M34.97 9.83L42.31 23.39"/>
<path data-layer="roof lines" d="M30.41 12.64L37.77 26.24"/>
<path data-layer="roof lines" d="M27.1 16.23L33.67 28.38"/>
<path data-layer="roof lines" d="M21.68 16.91L29.03 30.5"/>
<path data-layer="roof lines" d="M17.7 19.39L25.09 33.04"/>
</g>
</svg>
