<svg xmlns="http://www.w3.org/2000/svg" width="109.85" height="97.2" viewBox="0 0 36.62 32.4" data-footprint="1 2" data-origin="22.64 15.2" fill="none" stroke="#2a1e16" stroke-width="1.1" stroke-linecap="round" stroke-linejoin="round">
<defs><filter id="hand" x="-4%" y="-4%" width="108%" height="108%"><feTurbulence type="fractalNoise" baseFrequency="0.07" numOctaves="2" seed="4" result="warp"/><feDisplacementMap in="SourceGraphic" in2="warp" scale="1.3" xChannelSelector="R" yChannelSelector="G" result="wobble"/><feTurbulence type="fractalNoise" baseFrequency="1.2" numOctaves="2" seed="9" result="grain"/><feColorMatrix in="grain" type="matrix" values="0 0 0 0 0.16 0 0 0 0 0.11 0 0 0 0 0.07 2.2 0 0 0 -1.18" result="specks"/><feComposite in="specks" in2="wobble" operator="in" result="speckled"/><feMerge><feMergeNode in="wobble"/><feMergeNode in="speckled"/></feMerge></filter></defs>
<g class="part" filter="url(#hand)">
<path data-layer="walls" fill="#c4b393" d="M31.3 20.2L13.98 30.2L13.98 21.7L31.3 11.7Z"/>
<path data-layer="walls" fill="#ece1c9" d="M5.32 25.2L13.98 30.2L13.98 21.7L9.65 13.2L5.32 16.7Z"/>
<path data-layer="windows" fill="#2a1e16" d="M19.17 24.65L17.44 25.65L17.44 22.59L19.17 21.59Z"/>
<path data-layer="windows" fill="#2a1e16" d="M8.78 24.65L10.51 25.65L10.51 22.59L8.78 21.59Z"/>
<path data-layer="door" fill="#2a1e16" d="M28.53 21.8L28.53 17.82L28.41 17.2L28.07 16.81L27.56 16.71L26.97 16.92L26.37 17.4L25.87 18.08L25.53 18.86L25.41 19.62L25.41 23.6Z"/>
<path data-layer="eaves" class="roof-shade" fill="#7b5e45" d="M7.92 14.2L2.2 18.82L2.2 19.82L7.92 15.2Z"/>
<path data-layer="eaves" class="roof-shade" fill="#7b5e45" d="M7.92 14.2L13.63 25.42L13.63 26.42L7.92 15.2Z"/>
<path data-layer="eaves" class="roof-shade" fill="#7b5e45" d="M34.42 13.42L13.63 25.42L13.63 26.42L34.42 14.42Z"/>
<path data-layer="roof" class="roof-shade" fill="#7b5e45" d="M28.7 2.2L7.92 14.2L13.63 25.42L34.42 13.42Z"/>
<path data-layer="roof lines" d="M25.87 6.45L30.04 14.64"/>
<path data-layer="roof lines" d="M21.26 8.47L25.49 16.78"/>
<path data-layer="roof lines" d="M17.09 10.81L21.36 19.18"/>
<path data-layer="roof lines" d="M12.78 13.96L16.79 21.83"/>
</g>
</svg>
